<svg width="1919.9999999999998" height="1080" xmlns="http://www.w3.org/2000/svg">
 <!-- Created with Method Draw - http://github.com/duopixel/Method-Draw/ -->

 <g>
  <title>background</title>
  <rect fill="#fff" id="canvas_background" height="1082" width="1922" y="-1" x="-1"/>
  <g display="none" overflow="visible" y="0" x="0" height="100%" width="100%" id="canvasGrid">
   <rect fill="url(#gridpattern)" stroke-width="0" y="0" x="0" height="100%" width="100%"/>
  </g>
 </g>
 <g>
  <title>Layer 1</title>
  <style transform="matrix(2.414028419892148,0,0,2.414028419892148,0,0) " type="text/css">.st0{fill:#003956;}
	.st1{fill:#002A43;}
	.st2{fill:#211915;}
	.st3{fill:#004B71;}</style>
  <g stroke="null" id="svg_53">
   <g stroke="null" transform="matrix(1.8049413706035533,0,0,1.8049413706035533,172.13305511406463,-62.92319270354557) " id="svg_36">
    <path stroke="null" d="m514.64612,119.77072l-10.73,-6.12c-0.06,-0.03 -0.13,-0.06 -0.2,-0.07c-0.36,-0.06 -0.7,0.18 -0.76,0.53c-0.01,0.08 -0.01,0.16 0,0.24l0.26,1.45l8.3,2.99c0.26,0.09 0.45,0.33 0.45,0.62c0,0.05 -0.01,0.09 -0.02,0.14l-4.19,17.91l0,0c-0.01,0.03 -0.02,0.05 -0.03,0.07c0,-0.01 0.01,-0.01 0.01,-0.02l0,0l7.21,-16.92c0.02,-0.04 0.03,-0.09 0.04,-0.13c0.05,-0.29 -0.1,-0.56 -0.34,-0.69z" class="st0" id="svg_43"/>
    <path stroke="null" d="m511.05612,119.85072c0,-0.29 -0.19,-0.53 -0.45,-0.62l-8.3,-2.99l-3.32,-1.19c-0.07,-0.02 -0.14,-0.04 -0.21,-0.04c-0.36,0 -0.66,0.29 -0.66,0.66c0,0.08 0.02,0.16 0.04,0.23l0,0l8.02,22.03l0,0c0,0 0.01,0.01 0.01,0.01c0.01,0.02 0.02,0.04 0.03,0.06c0.01,0.01 0.01,0.02 0.02,0.03c0.01,0.02 0.03,0.03 0.05,0.05c0.01,0.01 0.02,0.02 0.03,0.02c0.02,0.01 0.04,0.02 0.05,0.03c0.02,0.01 0.03,0.01 0.05,0.02c0.02,0 0.03,0.01 0.05,0.01c0.02,0 0.04,0 0.06,0c0.02,0 0.04,0 0.05,-0.01c0.02,-0.01 0.04,-0.01 0.06,-0.02c0.01,-0.01 0.03,-0.01 0.04,-0.02c0.02,-0.01 0.04,-0.03 0.06,-0.04c0.01,-0.01 0.02,-0.02 0.03,-0.03c0.02,-0.02 0.03,-0.04 0.04,-0.06c0.01,-0.02 0.03,-0.05 0.03,-0.07l4.19,-17.91c0.03,-0.05 0.03,-0.1 0.03,-0.15z" class="st1" id="svg_42"/>
    <path stroke="null" d="m499.32612,113.02072" class="st2" id="svg_41"/>
    <path stroke="null" d="m499.29612,112.95072l0,0l-5.39,-22.57c-0.02,-0.1 -0.03,-0.2 -0.01,-0.31c0.05,-0.23 0.22,-0.41 0.43,-0.48l0,0l9.04,-3.28l0.38,-2.99c0,-0.02 0.01,-0.04 0.01,-0.06c0,-0.37 -0.3,-0.67 -0.67,-0.67c-0.13,0 -0.25,0.04 -0.35,0.1l-13.44,8.67c-0.19,0.12 -0.31,0.32 -0.31,0.56c0,0.11 0.03,0.21 0.07,0.3" class="st3" id="svg_40"/>
    <path stroke="null" d="m500.09612,113.42072" class="st2" id="svg_39"/>
    <path stroke="null" d="m510.52612,84.58072c-0.13,-0.03 -0.25,-0.02 -0.37,0.02l-5.99,2.18l-9.04,3.29c-0.21,0.07 -0.38,0.25 -0.43,0.48c-0.02,0.11 -0.02,0.21 0.01,0.31l5.38,22.46l1.57,-23.15c0.01,-0.1 0.03,-0.2 0.09,-0.3c0.12,-0.21 0.33,-0.32 0.55,-0.33l1.53,-0.07l0.08,0l0,0l5.74,-0.27l1.37,-3.76c0.01,-0.02 0.01,-0.04 0.02,-0.06c0.07,-0.37 -0.15,-0.72 -0.51,-0.8zm-10.44,28.74l0,0l0,0l0,0z" class="st0" id="svg_38"/>
    <path stroke="null" d="m501.43612,114.34072l0.04,-0.04l18.1,-23.7c0.01,-0.02 0.03,-0.03 0.04,-0.05c0.18,-0.32 0.08,-0.73 -0.24,-0.91c-0.11,-0.07 -0.24,-0.09 -0.36,-0.09l-8.63,0.4l-5.81,0.27l-3.04,23.88l-0.01,0.02c-0.01,0.04 0,0.08 -0.02,0.11c0,0 0.02,-0.02 0.02,-0.02c0.02,-0.03 0.01,-0.04 0.01,-0.08l0.02,0l3.02,-23.91l-1.53,0.07c-0.22,0.01 -0.43,0.12 -0.55,0.33c-0.05,0.09 -0.08,0.2 -0.09,0.3l-1.57,23.15l0,0c0,0.05 0.01,0.09 0.02,0.13c0.01,0.02 0.01,0.04 0.02,0.05c0.01,0.02 0.02,0.03 0.03,0.05c0.01,0.01 0.01,0.02 0.02,0.03c0.02,0.02 0.03,0.03 0.05,0.04c0.01,0 0.01,0.01 0.02,0.01c0.02,0.01 0.04,0.02 0.06,0.03c0.01,0 0.01,0 0.02,0.01c0.01,0 0.01,0 0.02,0c0.02,0.01 0.04,0.01 0.07,0.01c0.01,0 0.02,0 0.03,0c0.03,0 0.06,-0.01 0.08,-0.02c0,0 0.01,0 0.01,0c0.01,0 0.02,-0.01 0.03,-0.01c0.03,-0.01 0.06,-0.03 0.08,-0.05c0.02,0.01 0.03,0 0.04,-0.01c0.02,-0.02 0.04,-0.04 0.06,-0.07l0,-0.01" class="st1" id="svg_37"/>
   </g>
   <g stroke="null" transform="matrix(1.8049413706035533,0,0,1.8049413706035533,172.13305511406463,-62.92319270354557) " id="svg_45">
    <g stroke="null" id="svg_25">
     <g stroke="null" id="svg_26">
      <g stroke="null" id="svg_27">
       <path stroke="null" d="m353.30612,101.89072l0,-4.02l14.78,0l0,4.02l-5.23,0l0,14.83l-4.3,0l0,-14.83l-5.25,0z" class="st1" id="svg_35"/>
       <path stroke="null" d="m382.23612,116.71072l-12.54,0l0,-18.84l12.54,0l0,4.02l-8.24,0l0,3.3l6.7,0l0,4.02l-6.7,0l0,3.47l8.24,0l0,4.03z" class="st1" id="svg_34"/>
       <path stroke="null" d="m383.85612,116.71072l0,-18.84l4.3,0l0,14.82l7.44,0l0,4.02l-11.74,0z" class="st1" id="svg_33"/>
       <path stroke="null" d="m399.84612,107.36072c0,0.72 0.14,1.4 0.43,2.03c0.29,0.64 0.67,1.19 1.16,1.67c0.49,0.48 1.05,0.85 1.69,1.12c0.64,0.27 1.32,0.41 2.04,0.41c0.55,0 1.08,-0.08 1.57,-0.25c0.49,-0.17 0.95,-0.4 1.37,-0.68c0.46,-0.31 0.98,-0.47 1.56,-0.47c0.45,0 0.83,0.07 1.16,0.21c0.32,0.14 0.62,0.35 0.88,0.62l1.1,1.1c-0.54,0.57 -1.11,1.09 -1.71,1.55c-0.6,0.46 -1.22,0.85 -1.87,1.17c-0.65,0.32 -1.31,0.57 -2,0.74c-0.68,0.17 -1.37,0.26 -2.07,0.26c-0.87,0 -1.72,-0.11 -2.53,-0.34c-0.81,-0.23 -1.58,-0.54 -2.29,-0.96c-0.71,-0.41 -1.36,-0.91 -1.94,-1.48c-0.58,-0.58 -1.08,-1.21 -1.5,-1.92c-0.42,-0.7 -0.74,-1.46 -0.97,-2.27c-0.23,-0.81 -0.34,-1.65 -0.34,-2.53c0,-0.88 0.12,-1.72 0.34,-2.53c0.23,-0.81 0.55,-1.57 0.97,-2.27c0.42,-0.7 0.92,-1.34 1.5,-1.92c0.58,-0.58 1.22,-1.07 1.94,-1.48c0.71,-0.41 1.47,-0.73 2.29,-0.95c0.81,-0.23 1.66,-0.34 2.53,-0.34c0.69,0 1.38,0.09 2.07,0.26c0.68,0.17 1.35,0.42 2,0.74c0.64,0.32 1.27,0.71 1.87,1.17c0.6,0.46 1.17,0.98 1.71,1.55l-1.1,1.1c-0.26,0.26 -0.56,0.47 -0.9,0.62c-0.34,0.15 -0.72,0.23 -1.14,0.23c-0.57,0 -1.09,-0.16 -1.56,-0.48c-0.43,-0.3 -0.89,-0.52 -1.38,-0.69c-0.49,-0.16 -1.01,-0.25 -1.55,-0.25c-0.72,0 -1.4,0.14 -2.04,0.42c-0.64,0.28 -1.2,0.65 -1.69,1.12c-0.48,0.47 -0.87,1.03 -1.16,1.66c-0.3,0.66 -0.44,1.34 -0.44,2.06z" class="st1" id="svg_32"/>
       <path stroke="null" d="m413.07612,107.36072c0,-0.88 0.12,-1.72 0.34,-2.53c0.23,-0.81 0.55,-1.57 0.97,-2.27c0.42,-0.7 0.91,-1.34 1.49,-1.92c0.58,-0.58 1.23,-1.07 1.94,-1.48c0.71,-0.41 1.47,-0.73 2.29,-0.95c0.81,-0.23 1.66,-0.34 2.53,-0.34c0.87,0 1.72,0.11 2.53,0.34c0.81,0.23 1.58,0.54 2.29,0.95c0.71,0.41 1.36,0.91 1.94,1.48c0.58,0.57 1.08,1.21 1.49,1.92c0.42,0.7 0.74,1.46 0.97,2.27c0.23,0.81 0.34,1.65 0.34,2.53c0,0.87 -0.12,1.72 -0.34,2.53c-0.23,0.81 -0.55,1.57 -0.97,2.27c-0.41,0.7 -0.91,1.34 -1.49,1.92c-0.58,0.58 -1.23,1.07 -1.94,1.48c-0.71,0.41 -1.47,0.73 -2.29,0.96c-0.81,0.22 -1.66,0.34 -2.53,0.34c-0.88,0 -1.73,-0.11 -2.54,-0.34c-0.81,-0.23 -1.57,-0.54 -2.28,-0.96c-0.71,-0.41 -1.36,-0.91 -1.94,-1.48c-0.58,-0.58 -1.08,-1.21 -1.49,-1.92c-0.42,-0.7 -0.74,-1.46 -0.97,-2.27c-0.23,-0.82 -0.34,-1.66 -0.34,-2.53zm4.24,0c0,0.72 0.14,1.4 0.43,2.03c0.29,0.64 0.67,1.19 1.16,1.67c0.48,0.48 1.05,0.85 1.69,1.12c0.64,0.27 1.32,0.41 2.04,0.41c0.71,0 1.39,-0.14 2.03,-0.41c0.65,-0.27 1.21,-0.65 1.7,-1.12c0.49,-0.48 0.87,-1.03 1.16,-1.67c0.29,-0.64 0.43,-1.31 0.43,-2.03s-0.14,-1.4 -0.43,-2.03c-0.29,-0.64 -0.67,-1.19 -1.16,-1.66c-0.49,-0.47 -1.05,-0.85 -1.7,-1.12c-0.65,-0.28 -1.32,-0.42 -2.03,-0.42c-0.72,0 -1.4,0.14 -2.04,0.42c-0.64,0.28 -1.2,0.65 -1.69,1.12c-0.49,0.47 -0.87,1.03 -1.16,1.66c-0.28,0.63 -0.43,1.31 -0.43,2.03z" class="st1" id="svg_31"/>
       <path stroke="null" d="m451.37612,116.71072l-4.27,0l-9,-13.03l0,13.03l-4.29,0l0,-18.84l4.23,0c0.42,0 0.79,0.06 1.12,0.18c0.32,0.12 0.57,0.31 0.75,0.57l6.58,9.65c0.1,0.14 0.18,0.29 0.25,0.46c0.07,0.17 0.13,0.32 0.18,0.47c0.05,0.14 0.09,0.27 0.12,0.37c0.03,0.11 0.04,0.17 0.04,0.2l0,-11.9l4.29,0l0,18.84z" class="st1" id="svg_30"/>
       <path stroke="null" d="m465.53612,116.71072l-12.54,0l0,-18.84l12.54,0l0,4.02l-8.24,0l0,3.3l6.71,0l0,4.02l-6.71,0l0,3.47l8.24,0l0,4.03z" class="st1" id="svg_29"/>
       <path stroke="null" d="m467.15612,101.89072l0,-4.02l14.77,0l0,4.02l-5.23,0l0,14.83l-4.3,0l0,-14.83l-5.24,0z" class="st1" id="svg_28"/>
      </g>
     </g>
    </g>
    <g stroke="null" id="svg_46">
     <g stroke="null" id="svg_24">
      <g stroke="null" id="svg_47">
       <path stroke="null" id="svg_48" d="m433.81612,118.02072c0,-0.05 0.02,-0.09 0.05,-0.12c0.03,-0.03 0.07,-0.05 0.13,-0.05l0.78,0c0.1,0 0.16,0.06 0.17,0.17l0,4.46l2.23,0c0.05,0 0.09,0.02 0.12,0.05c0.03,0.03 0.05,0.07 0.05,0.13l0,0.7c0,0.1 -0.06,0.16 -0.17,0.17l-3.18,0c-0.11,0 -0.17,-0.06 -0.17,-0.17l0,-5.34l-0.01,0z" class="st3"/>
       <path stroke="null" id="svg_49" d="m444.52612,118.00072c0.04,-0.1 0.11,-0.15 0.19,-0.15l0.64,0c0.04,0 0.08,0.01 0.11,0.03c0.03,0.02 0.06,0.06 0.08,0.11l2.15,5.35c0.02,0.05 0.02,0.09 0,0.12c-0.02,0.03 -0.06,0.04 -0.11,0.04l-0.83,0c-0.04,0 -0.08,-0.01 -0.11,-0.03c-0.03,-0.02 -0.06,-0.06 -0.07,-0.11l-0.37,-0.92l-2.34,0l-0.36,0.91c-0.02,0.05 -0.05,0.09 -0.08,0.11s-0.07,0.03 -0.11,0.03l-0.84,0c-0.05,0 -0.09,-0.01 -0.11,-0.04c-0.02,-0.03 -0.02,-0.07 0,-0.12l2.16,-5.33zm-0.31,3.48l1.62,0l-0.8,-2.16l-0.82,2.16z" class="st3"/>
       <path stroke="null" id="svg_50" d="m451.85612,118.01072c0,-0.1 0.05,-0.15 0.15,-0.15l4,0c0.1,0 0.15,0.05 0.15,0.15l0,0.72c0,0.1 -0.05,0.15 -0.15,0.15l-1.46,0l0,4.49c0,0.1 -0.05,0.15 -0.15,0.15l-0.82,0c-0.1,0 -0.15,-0.05 -0.15,-0.15l0,-4.49l-1.42,0c-0.1,0 -0.15,-0.05 -0.15,-0.15l0,-0.72z" class="st3"/>
       <path stroke="null" id="svg_51" d="m462.01612,118.00072c0.04,-0.1 0.11,-0.15 0.19,-0.15l0.64,0c0.04,0 0.08,0.01 0.11,0.03c0.03,0.02 0.06,0.06 0.08,0.11l2.15,5.35c0.02,0.05 0.02,0.09 0,0.12c-0.02,0.03 -0.06,0.04 -0.11,0.04l-0.83,0c-0.04,0 -0.08,-0.01 -0.11,-0.03c-0.03,-0.02 -0.06,-0.06 -0.07,-0.11l-0.37,-0.92l-2.34,0l-0.36,0.91c-0.02,0.05 -0.05,0.09 -0.08,0.11s-0.07,0.03 -0.11,0.03l-0.84,0c-0.05,0 -0.09,-0.01 -0.11,-0.04c-0.02,-0.03 -0.02,-0.07 0,-0.12l2.16,-5.33zm-0.3,3.48l1.62,0l-0.8,-2.16l-0.82,2.16z" class="st3"/>
       <path stroke="null" id="svg_52" d="m471.81612,119.76072l-0.4,3.6c-0.01,0.05 -0.02,0.09 -0.04,0.11c-0.02,0.03 -0.06,0.04 -0.11,0.04l-0.78,0c-0.05,0 -0.09,-0.01 -0.11,-0.04c-0.03,-0.03 -0.04,-0.07 -0.03,-0.12l0.58,-5.36c0,-0.05 0.02,-0.08 0.05,-0.11c0.03,-0.03 0.06,-0.04 0.11,-0.04l0.99,0c0.04,0 0.07,0.01 0.09,0.03s0.03,0.06 0.05,0.1l1.36,3.77l1.34,-3.77c0.02,-0.05 0.04,-0.08 0.06,-0.11c0.02,-0.02 0.05,-0.03 0.09,-0.03l1.01,0c0.1,0 0.15,0.05 0.16,0.15l0.58,5.36c0,0.05 -0.01,0.09 -0.03,0.12c-0.03,0.03 -0.07,0.04 -0.12,0.04l-0.77,0c-0.05,0 -0.09,-0.01 -0.11,-0.04c-0.02,-0.02 -0.04,-0.06 -0.05,-0.11l-0.39,-3.6l-1.3,3.5c-0.02,0.06 -0.04,0.1 -0.06,0.11c-0.02,0.02 -0.05,0.03 -0.09,0.03l-0.64,0c-0.04,0 -0.07,-0.01 -0.09,-0.03c-0.02,-0.02 -0.04,-0.06 -0.06,-0.11l-1.29,-3.49z" class="st3"/>
      </g>
     </g>
    </g>
   </g>
  </g>
 </g>
</svg>